<?xml version="1.0" encoding="UTF-8" standalone="no"?>
<svg
   xmlns:dc="http://purl.org/dc/elements/1.1/"
   xmlns:cc="http://creativecommons.org/ns#"
   xmlns:rdf="http://www.w3.org/1999/02/22-rdf-syntax-ns#"
   xmlns:svg="http://www.w3.org/2000/svg"
   xmlns="http://www.w3.org/2000/svg"
   xmlns:sodipodi="http://sodipodi.sourceforge.net/DTD/sodipodi-0.dtd"
   xmlns:inkscape="http://www.inkscape.org/namespaces/inkscape"
   inkscape:version="1.0rc1 (09960d6f05, 2020-04-09)"
   sodipodi:docname="default-user.svg"
   id="svg8"
   xml:space="preserve"
   enable-background="new 0 0 1000 1000"
   viewBox="0 0 1000 1000"
   y="0px"
   x="0px"
   version="1.1"><defs
   id="defs12" /><sodipodi:namedview
   inkscape:current-layer="svg8"
   inkscape:window-maximized="1"
   inkscape:window-y="-8"
   inkscape:window-x="-8"
   inkscape:cy="500"
   inkscape:cx="500"
   inkscape:zoom="0.236"
   showgrid="false"
   id="namedview10"
   inkscape:window-height="745"
   inkscape:window-width="1366"
   inkscape:pageshadow="2"
   inkscape:pageopacity="0"
   guidetolerance="10"
   gridtolerance="10"
   objecttolerance="10"
   borderopacity="1"
   bordercolor="#666666"
   pagecolor="#ffffff" />
<metadata
   id="metadata2"> Svg Vector Icons : http://www.onlinewebfonts.com/icon <rdf:RDF><cc:Work
     rdf:about=""><dc:format>image/svg+xml</dc:format><dc:type
       rdf:resource="http://purl.org/dc/dcmitype/StillImage" /><dc:title></dc:title></cc:Work></rdf:RDF></metadata>
<g
   transform="matrix(0.59715742,0,0,0.59715742,214.9545,211.65554)"
   id="g6"><path
     inkscape:connector-curvature="0"
     id="path4"
     d="M 788.7,609.5 C 749.4,560 703.3,518.8 655.5,490.5 637.8,480 620.1,471.3 602.4,464.4 c 24.3,-11.6 46.8,-27.4 66.4,-47 45.1,-45.1 69.9,-105 69.9,-168.8 0,-63.8 -24.8,-123.7 -69.9,-168.8 C 623.7,34.8 563.8,10 500,10 436.2,10 376.3,34.8 331.2,79.9 c -45.1,45.1 -69.9,105 -69.9,168.8 0,63.8 24.8,123.7 69.9,168.8 19.7,19.7 42.2,35.5 66.6,47.1 -17.8,7 -35.5,15.7 -53.2,26.3 -47.8,28.5 -93.8,69.8 -133.2,119.5 -82.7,104.2 -130.1,234.7 -130.1,358.1 0,11.9 9.6,21.5 21.5,21.5 h 794.3 c 11.9,0 21.5,-9.6 21.5,-21.5 0.1,-124.2 -47.3,-255 -129.9,-359 z M 304.4,248.7 c 0,-107.9 87.8,-195.6 195.6,-195.6 107.8,0 195.6,87.8 195.6,195.6 0,107.9 -87.8,195.6 -195.6,195.6 -107.9,0 -195.6,-87.7 -195.6,-195.6 z M 124.9,946.9 c 2.4,-51 13.4,-102.9 32.8,-154.7 20.8,-55.6 51,-109.3 87.5,-155.3 36.2,-45.6 78.2,-83.4 121.5,-109.2 45,-26.8 89.9,-40.4 133.3,-40.4 43.6,0 88.5,13.5 133.5,40.2 43.4,25.7 85.4,63.3 121.5,108.7 36.4,45.9 66.7,99.5 87.4,155.1 19.3,51.9 30.3,104.1 32.7,155.5 H 124.9 Z" /></g>
</svg>
