<?xml version="1.0" encoding="utf-8"?>
<!-- Generator: Adobe Illustrator 23.0.1, SVG Export Plug-In . SVG Version: 6.00 Build 0)  -->
<svg version="1.1"
	 id="svg10" xmlns:cc="http://creativecommons.org/ns#" xmlns:dc="http://purl.org/dc/elements/1.1/" xmlns:inkscape="http://www.inkscape.org/namespaces/inkscape" xmlns:osb="http://www.openswatchbook.org/uri/2009/osb" xmlns:rdf="http://www.w3.org/1999/02/22-rdf-syntax-ns#" xmlns:sodipodi="http://sodipodi.sourceforge.net/DTD/sodipodi-0.dtd" xmlns:svg="http://www.w3.org/2000/svg"
	 xmlns="http://www.w3.org/2000/svg" xmlns:xlink="http://www.w3.org/1999/xlink" x="0px" y="0px" viewBox="0 0 497.2 116.5"
	 style="enable-background:new 0 0 497.2 116.5;" xml:space="preserve">
<style type="text/css">
	.st0{enable-background:new    ;}
	.st1{fill:#99FF66;stroke:#000000;stroke-width:4;stroke-miterlimit:10;}
	.st2{fill:#3AFF00;stroke:#66FF33;stroke-miterlimit:10;}
	.st3{fill:url(#path54_1_);stroke:#D08D00;stroke-width:4.9366;}
	.st4{fill:#333333;}
	.st5{fill:#FF0000;}
	.st6{fill-rule:evenodd;clip-rule:evenodd;fill:#007000;}
	.st7{fill:#007000;}
	.st8{fill:#0000FF;}
	.st9{fill:url(#path102_1_);}
</style>
<g>
	<g class="st0">
		<path class="st1" d="M72.8,91.1L64.2,91l3.5-41l-19,41.9l-3.2,0l-1.1-42.1L30.3,90.7l-8.6-0.1l26.2-76l4.7,0.1L52.6,66l21.5-51.1
			l4.7,0.1L72.8,91.1z"/>
	</g>
	<g class="st0">
		<path class="st1" d="M102.2,85.8c-1.2,1.9-2.9,3.5-5,4.7c-2.2,1.2-4.3,1.8-6.4,1.8c-3.9,0-6.7-1.6-8.3-4.6s-1.8-7.3-0.7-12.8
			c1.4-6.4,4-11.5,8-15c3.9-3.6,8.8-5.4,14.7-5.3c1,0,2.1,0.3,3.4,0.8c1.4-6.5-0.6-9.8-6.1-9.9c-3.2,0-6.1,0.7-8.6,2.4l0.3-10.1
			c3.4-2.1,7.1-3.1,11.1-3.1c5.6,0.1,9.2,2,11,5.9c1.8,3.9,1.5,11.2-0.8,22l-2.5,11.9c-1.6,7.4-1.6,12.1,0,14
			c-1.1,1.9-2.1,3-3.1,3.4c-1,0.4-2,0.6-3.1,0.6c-1.2,0-2.2-0.7-2.9-2.1C102.5,88.9,102.2,87.4,102.2,85.8z M105.8,65.2
			c-1.4-0.5-2.4-0.7-3.1-0.7c-6.7-0.1-10.8,3.2-12.2,10c-1.1,5,0.3,7.5,4.1,7.5c5.1,0.1,8.5-3.8,10.2-11.6L105.8,65.2z"/>
	</g>
	<g class="st0">
		<path class="st1" d="M143.4,91.8l6.8-32.1c1-4.7,1.1-8.2,0.4-10.4c-0.7-2.2-2.4-3.3-5.1-3.3c-1.2,0-2.7,0.5-4.3,1.6
			c-1.6,1.1-3,2.4-4.2,4l-8.5,40.2l-8.5-0.1L131.7,36l6.1,0.1l0.5,5.2c3.2-4.1,7.1-6.2,11.6-6.1c4.3,0,7.3,2.1,9,6.1
			c1.7,4,1.7,9.5,0.2,16.6l-7.3,34.1L143.4,91.8z"/>
	</g>
	<g class="st0">
		<path class="st1" d="M184.6,92.3l1-4.7c-1.5,1.5-3.5,2.9-5.8,3.9c-2.3,1.1-4.4,1.6-6.2,1.6c-8.5-0.1-11.3-7-8.3-20.7l7.7-36.1
			l8.5,0.1L174,71.6c-1.5,7.1-0.2,10.7,4,10.8c1.9,0,3.9-0.7,5.9-2.2c2-1.5,3.5-3.3,4.4-5.3l8.1-38.2l8.5,0.1l-11.8,55.6L184.6,92.3
			z"/>
	</g>
	<g class="st0">
		<path class="st1" d="M236.8,28.6l-13.6,64l-8.9-0.1l13.6-64L212,28.4l2.6-12l41.3,0.4l-2.6,12L236.8,28.6z"/>
	</g>
	<g class="st0">
		<path class="st1" d="M253.7,92.9l9.6-44.9l-4.7-0.1l2.3-10.6l13.3,0.1L262.3,93L253.7,92.9z M274.5,15.8c1.4,0,2.4,0.8,3,2.2
			c0.7,1.5,0.8,3.3,0.3,5.3c-0.4,2.1-1.3,3.8-2.6,5.3c-1.3,1.5-2.6,2.2-4,2.2c-1.4,0-2.4-0.8-3-2.2c-0.7-1.5-0.8-3.3-0.3-5.3
			c0.4-2.1,1.3-3.8,2.6-5.3C271.8,16.5,273.2,15.8,274.5,15.8z"/>
	</g>
	<g class="st0">
		<path class="st1" d="M314.5,93.5l7.4-34.8c1.6-7.3,0.2-11-4.1-11c-1.3,0-2.6,0.5-4,1.7c-1.4,1.1-2.5,2.4-3.3,3.9l-8.5,40.1
			l-8.5-0.1l7.8-36.8c0.6-2.7,0.5-4.9-0.3-6.5c-0.8-1.6-2.2-2.4-4.2-2.5c-1.1,0-2.4,0.6-3.9,1.8c-1.5,1.2-2.7,2.5-3.6,4l-8.5,40
			l-8.5-0.1l11.8-55.6l5.9,0.1l0.7,4.9c3.2-3.9,6.7-5.9,10.4-5.8c4.8,0.1,8.1,2.1,9.7,6.1c1.5-1.8,3.3-3.3,5.4-4.3
			c2.1-1.1,4.2-1.6,6.1-1.6c4.1,0,6.9,1.9,8.4,5.4c1.5,3.6,1.6,8.5,0.3,14.6L323,93.6L314.5,93.5z"/>
	</g>
	<g class="st0">
		<path class="st1" d="M369.8,70.3L343.8,70c-0.8,4.4-0.5,7.9,0.8,10.4c1.3,2.5,3.5,3.7,6.6,3.8c3.9,0,7.2-1.5,9.8-4.5l1.2,9.9
			c-3.8,3.7-8.7,5.5-14.6,5.4c-5.6-0.1-9.4-2.6-11.6-7.6c-2.2-5-2.3-11.9-0.4-20.8c1.9-8.8,5.2-15.8,9.9-21.2
			c4.7-5.4,9.6-8.1,14.5-8c5.3,0.1,9,2.5,11.2,7.4c2.2,4.8,2.5,11,0.9,18.4C371.7,64.7,371,67.1,369.8,70.3z M346.1,60.2l17.9,0.2
			c1.1-8.1-0.9-12.2-6.3-12.3C352.9,48.1,349,52.1,346.1,60.2z"/>
	</g>
</g>
<sodipodi:namedview  bordercolor="#666666" borderopacity="1" fit-margin-bottom="0" fit-margin-left="0" fit-margin-right="0" fit-margin-top="0" gridtolerance="10" guidetolerance="10" id="namedview12" inkscape:current-layer="g18" inkscape:cx="9.4689944" inkscape:cy="-69.27902" inkscape:pageopacity="0" inkscape:pageshadow="2" inkscape:window-height="745" inkscape:window-maximized="1" inkscape:window-width="1366" inkscape:window-x="-8" inkscape:window-y="-8" inkscape:zoom="0.58689865" objecttolerance="10" pagecolor="#ffffff" showgrid="false">
	</sodipodi:namedview>
<g class="st0">
	<path class="st2" d="M70.6,88.9L62,88.8l3.5-41.1l-19,41.9l-3.2,0l-1.1-42.1L28.2,88.5l-8.6-0.1l26.2-76l4.7,0.1l-0.1,51.3L72,12.7
		l4.7,0.1L70.6,88.9z"/>
</g>
<g class="st0">
	<path class="st2" d="M100.1,83.6c-1.2,1.9-2.9,3.5-5,4.7c-2.2,1.2-4.3,1.8-6.4,1.8c-3.9,0-6.7-1.6-8.3-4.6s-1.8-7.3-0.7-12.8
		c1.4-6.4,4-11.5,8-15c3.9-3.6,8.8-5.4,14.7-5.3c1,0,2.1,0.3,3.4,0.8c1.4-6.5-0.6-9.8-6.1-9.9c-3.2,0-6.1,0.7-8.6,2.4l0.3-10.1
		c3.4-2.1,7.1-3.1,11.1-3.1c5.6,0.1,9.2,2,11,5.9c1.8,3.9,1.5,11.2-0.8,22l-2.5,11.9c-1.6,7.4-1.6,12.1,0,14c-1.1,1.9-2.1,3-3.1,3.4
		c-1,0.4-2,0.6-3.1,0.6c-1.2,0-2.2-0.7-2.9-2.1S100.1,85.2,100.1,83.6z M103.6,63c-1.4-0.5-2.4-0.7-3.1-0.7
		c-6.7-0.1-10.8,3.2-12.2,10c-1.1,5,0.3,7.5,4.1,7.5c5.1,0.1,8.5-3.8,10.2-11.6L103.6,63z"/>
</g>
<g class="st0">
	<path class="st2" d="M141.3,89.6l6.8-32.1c1-4.7,1.1-8.2,0.4-10.4c-0.7-2.2-2.4-3.3-5.1-3.3c-1.2,0-2.7,0.5-4.3,1.6
		c-1.6,1.1-3,2.4-4.2,4l-8.5,40.2l-8.5-0.1l11.8-55.6l6.1,0.1l0.5,5.2c3.2-4.1,7.1-6.2,11.6-6.1c4.3,0,7.3,2.1,9,6.1
		c1.7,4,1.7,9.5,0.2,16.6l-7.3,34.1L141.3,89.6z"/>
</g>
<g class="st0">
	<path class="st2" d="M182.5,90.1l1-4.7c-1.5,1.5-3.5,2.9-5.8,3.9c-2.3,1.1-4.4,1.6-6.2,1.6c-8.5-0.1-11.3-7-8.3-20.7l7.7-36.1
		l8.5,0.1l-7.5,35.1c-1.5,7.1-0.2,10.7,4,10.8c1.9,0,3.9-0.7,5.9-2.2c2-1.5,3.5-3.3,4.4-5.3l8.1-38.2l8.5,0.1L191,90.2L182.5,90.1z"
		/>
</g>
<g class="st0">
	<path class="st2" d="M234.6,26.4l-13.6,64l-8.9-0.1l13.6-64l-15.9-0.2l2.6-12l41.3,0.4l-2.6,12L234.6,26.4z"/>
</g>
<g class="st0">
	<path class="st2" d="M251.6,90.7l9.6-44.9l-4.7-0.1l2.3-10.6l13.3,0.1l-11.8,55.6L251.6,90.7z M272.4,13.6c1.4,0,2.4,0.8,3,2.2
		c0.7,1.5,0.8,3.3,0.3,5.3c-0.4,2.1-1.3,3.8-2.6,5.3c-1.3,1.5-2.6,2.2-4,2.2c-1.4,0-2.4-0.8-3-2.2c-0.7-1.5-0.8-3.3-0.3-5.3
		c0.4-2.1,1.3-3.8,2.6-5.3C269.7,14.3,271,13.6,272.4,13.6z"/>
</g>
<g class="st0">
	<path class="st2" d="M312.4,91.3l7.4-34.8c1.6-7.3,0.2-11-4.1-11c-1.3,0-2.6,0.5-4,1.7c-1.4,1.1-2.5,2.4-3.3,3.9l-8.5,40.1
		l-8.5-0.1l7.8-36.8c0.6-2.7,0.5-4.9-0.3-6.5c-0.8-1.6-2.2-2.4-4.2-2.5c-1.1,0-2.4,0.6-3.9,1.8c-1.5,1.2-2.7,2.5-3.6,4l-8.5,40
		l-8.5-0.1l11.8-55.6l5.9,0.1l0.7,4.9c3.2-3.9,6.7-5.9,10.4-5.8c4.8,0.1,8.1,2.1,9.7,6.1c1.5-1.8,3.3-3.3,5.4-4.3
		c2.1-1.1,4.2-1.6,6.1-1.6c4.1,0,6.9,1.9,8.4,5.4c1.5,3.6,1.6,8.5,0.3,14.6l-7.8,36.7L312.4,91.3z"/>
</g>
<g class="st0">
	<path class="st2" d="M367.7,68.1l-26.1-0.3c-0.8,4.4-0.5,7.9,0.8,10.4c1.3,2.5,3.5,3.7,6.6,3.8c3.9,0,7.2-1.5,9.8-4.5l1.2,9.9
		c-3.8,3.7-8.7,5.5-14.6,5.4c-5.6-0.1-9.4-2.6-11.6-7.6c-2.2-5-2.3-11.9-0.4-20.8c1.9-8.8,5.2-15.8,9.9-21.2c4.7-5.4,9.6-8.1,14.5-8
		c5.3,0.1,9,2.5,11.2,7.4c2.2,4.8,2.5,11,0.9,18.4C369.6,62.5,368.9,64.9,367.7,68.1z M344,58l17.9,0.2c1.1-8.1-0.9-12.2-6.3-12.3
		C350.8,45.9,346.9,49.9,344,58z"/>
</g>
<g id="g36" transform="matrix(0.28768159,0,0,0.28768159,268.70212,-111.39419)">
	<g id="g38">
		<g id="g44">
			<g id="g46">
				<radialGradient id="path54_1_" cx="596.1654" cy="591.8866" r="55.76" gradientUnits="userSpaceOnUse">
					<stop  offset="0" style="stop-color:#FFFFFF"/>
					<stop  offset="1" style="stop-color:#FFFF33"/>
				</radialGradient>
				<path id="path54" inkscape:connector-curvature="0" class="st3" d="M402.3,591c-0.5,107,85.9,194.2,192.9,194.7l0,0l0,0
					c107,0.5,194.2-85.9,194.7-192.9l0,0v0c0.5-107-85.9-194.2-192.9-194.7l0,0c-0.3,0-0.6,0-0.9,0l0,0
					C489.5,398.1,402.8,484.2,402.3,591"/>
			</g>
		</g>
	</g>
</g>
<g>
	<g>
		<g>
			<path class="st4" d="M465.9,99.6c-0.5-0.9-1.4-1.4-2.4-1.3c-1.4,0.1-2.6,1.3-2.5,2.7c0,0.4,0.1,0.9,0.4,1.2l1.2,2
				c1.6-0.8,3.1-1.7,4.5-2.6L465.9,99.6z"/>
		</g>
	</g>
</g>
<g>
	<g>
		<g>
			<path class="st4" d="M482.3,81.3c-0.5-0.3-1-0.4-1.5-0.4c-1.4,0.1-2.5,1.3-2.4,2.8c0.1,0.9,0.6,1.7,1.3,2.1l2,1.2
				c0.9-1.5,1.8-3,2.6-4.5L482.3,81.3z"/>
		</g>
	</g>
</g>
<g>
	<g>
		<g>
			<path class="st4" d="M481.8,32.5l-2,1.2c-1.3,0.7-1.8,2.2-1.1,3.5c0.7,1.3,2.2,1.8,3.5,1.1c0.1,0,0.1-0.1,0.2-0.1l2-1.2
				C483.6,35.5,482.7,34,481.8,32.5z"/>
		</g>
	</g>
</g>
<g>
	<g>
		<g>
			<path class="st4" d="M462.5,15.2l-1.2,2c-0.8,1.2-0.4,2.8,0.8,3.6c1.2,0.8,2.8,0.4,3.6-0.8c0-0.1,0.1-0.1,0.1-0.2l1.2-2
				C465.6,16.9,464.1,16,462.5,15.2z"/>
		</g>
	</g>
</g>
<g>
	<g>
		<g>
			<path d="M442.2,13.2v-0.1V9.8c-0.8-0.1-1.6-0.1-2.4-0.1c-0.9,0-1.7,0-2.6,0.1v3.3c0,0,1.1,3.6,2.5,3.6
				C441.2,16.8,442.4,15.2,442.2,13.2z"/>
		</g>
	</g>
</g>
<g>
	<g>
		<g>
			<path d="M489.7,57h-3.4c-2.2,0-4,1.5-3.4,3.1c0.4,1,1.7,1.8,3.2,1.8c0.1,0,0.3,0,0.3,0h3.3c0-0.7,0.1-1.5,0.1-2.2
				C489.8,58.8,489.8,57.9,489.7,57z"/>
		</g>
	</g>
</g>
<g>
	<g>
		<g>
			<path class="st4" d="M417.4,98.7c-0.4-0.2-0.9-0.4-1.3-0.4c-1,0-1.8,0.5-2.3,1.3l-1.2,2c1.5,0.9,3,1.8,4.5,2.6l1.2-2
				C419.1,101,418.7,99.4,417.4,98.7z"/>
		</g>
	</g>
</g>
<g>
	<g>
		<g>
			<path class="st4" d="M401,82.2c-0.4-0.8-1.3-1.3-2.2-1.3c-0.1,0-0.2,0-0.3,0c-0.4,0-0.8,0.2-1.2,0.4l-2,1.2
				c0.8,1.6,1.7,3.1,2.6,4.5l2-1.2C401.2,85.1,401.7,83.5,401,82.2z"/>
		</g>
	</g>
</g>
<g>
	<g>
		<g>
			<path d="M439.9,102.7L439.9,102.7c-1.5,0-3.2,3.6-3.2,3.6v3.2c1,0.1,2.1,0.2,3.2,0.2c0.8,0,1.6,0,2.4-0.1v-3.3
				C442.5,104.4,441.3,102.7,439.9,102.7z"/>
		</g>
	</g>
</g>
<g>
	<g>
		<g>
			<path class="st4" d="M400.1,33.8c-0.1,0-0.1-0.1-0.2-0.1l-2-1.2c-0.9,1.5-1.8,3-2.6,4.5l2,1.2c1.2,0.8,2.8,0.4,3.6-0.8
				C401.7,36.2,401.3,34.6,400.1,33.8z"/>
		</g>
	</g>
</g>
<g>
	<g>
		<g>
			<path class="st4" d="M418.4,17.4c0-0.1-0.1-0.1-0.1-0.2l-1.2-2c-1.6,0.8-3.1,1.7-4.5,2.6l1.2,2c0.7,1.3,2.2,1.8,3.5,1.1
				C418.6,20.3,419.1,18.7,418.4,17.4z"/>
		</g>
	</g>
</g>
<g>
	<g>
		<g>
			<path d="M393.3,57h-0.1h-3.2c-0.1,0.9-0.1,1.8-0.1,2.7c0,0.7,0,1.5,0.1,2.2h3.3c2,0.4,3.6-0.8,3.7-2.2
				C396.9,58.3,395.3,57.1,393.3,57z"/>
		</g>
	</g>
</g>
<g id="g80" transform="translate(208.9639,633.3008)">
	<path id="path82" inkscape:connector-curvature="0" class="st5" d="M217.1-617.8l0.2,7.4l2.6,1.5l4.4,12.6l-4,1.8l0.5,1.6
		c4.6,1.3,3.3,6.1,1.7,7.9l4.1,13.4c3.8,1.1,10.9-0.9,13.5-3.8l-4.1-13.4c-2.3-0.7-6.1-4-3-7.5l-0.5-1.6l-4.4,0.6l-4.4-12.6l1.3-2.6
		l-4-6.3L217.1-617.8z"/>
</g>
<g>
	<g id="g68" transform="translate(292.4678,581.2446)">
		<path id="path70" inkscape:connector-curvature="0" class="st6" d="M182.9-539.3l-8,1.9l1.6,7l4.9-4.7
			C182.6-536.2,183-537.6,182.9-539.3"/>
	</g>
	<g id="g76" transform="translate(268.3452,574.1465)">
		<path id="path78" inkscape:connector-curvature="0" class="st7" d="M191.7-527.8l0.5,2.2c0.1,0.5-0.2,1-0.7,1.1l-2.7,0.6
			c-0.5,0.1-1-0.2-1.1-0.7l-0.5-2.2c-0.1-0.5,0.2-1,0.7-1.1l2.7-0.6C191-528.6,191.5-528.3,191.7-527.8"/>
	</g>
	<g id="g72" transform="translate(211.0146,539.5581)">
		<path id="path74" inkscape:connector-curvature="0" class="st6" d="M230.2-480c-0.3-1.3-1.6-2.2-3-1.9c-1.3,0.3-2.2,1.6-1.9,3
			c0.3,1.3,1.7,2.2,3,1.9C229.7-477.4,230.6-478.7,230.2-480 M250.7-495c-0.1-0.5-0.6-0.8-1.2-0.7l-6.4,1.5
			c-0.5,0.1-0.9,0.6-0.7,1.2l1.1,4.8c0.1,0.5,0.6,0.8,1.2,0.7l6.4-1.5c0.5-0.1,0.8-0.6,0.7-1.2L250.7-495z M262.2-506.1l-8.6,2
			c-0.9,0.3-1,1.7-0.6,2.9l3.3,14c-5.2,0.4-11.4,0.2-16.8,4.6l-7.8,6.8c-0.7,0.6-1.4,1.1-2.4,1.3c-2.7,0.6-5.4-1-6.1-3.8
			c-0.5-2,0.3-4,1.8-5.2l11.6-6.7c5.7-4.2,6.8-11,9.9-16.7C248.7-510.6,259.8-510.4,262.2-506.1"/>
	</g>
</g>
<g id="g106">
	<g id="g112" transform="translate(204.521,541.4346)">
		<path id="path114" inkscape:connector-curvature="0" class="st8" d="M233.6-486.5l1.2-0.8c0.5-0.4,1.1-0.5,1.7-0.5l1.4,0.1
			c0.6,0.1,1.2,0.3,1.6,0.8l1,1c0.4,0.4,0.7,1,0.8,1.6l0.1,1.4c0.1,0.6-0.1,1.2-0.5,1.7l-0.8,1.2c-0.4,0.5-0.9,0.9-1.5,1l-1.4,0.4
			c-0.6,0.2-1.2,0.1-1.8-0.2l-1.3-0.6c-0.6-0.3-1-0.7-1.3-1.3l-0.6-1.3c-0.3-0.6-0.3-1.2-0.1-1.8l0.4-1.4
			C232.7-485.7,233-486.2,233.6-486.5z M229.3-490.5c-3,3.3-3.1,4.9-3.4,8c-0.2,1.7-0.3,3.7-0.9,5.2c-0.1,0.2-0.3,0.4-0.4,0.6
			c-15.8,17.3,9.1-9.9-6.4,7.1c-0.1,0.1-0.2,0.2-0.3,0.3c-1.5,1.3-3.4,1.8-5,1.9c-2.8,0.6-5.2,2.1-6.5,4.1c-2,3.2-1.5,7.3,0.7,10.3
			c0.2,0.3,0.6,0.5,1,0.4c0.4,0,0.7-0.3,0.9-0.6c0.7-1.3,1.4-2.5,2.2-3.8c0.7-1.1,2.1-1.6,3.2-1.1c0.1,0,0.1,0,0.2,0.1
			c1.3,0.6,1.8,2.3,1.1,3.6l-0.1,0.2c-0.6,1.2-1.3,2.5-1.9,3.7c-0.3,0.5-0.1,1.1,0.4,1.5c0.2,0.1,0.4,0.2,0.6,0.2c0.1,0,0.2,0,0.3,0
			c1.8-0.1,3.6-0.4,4.9-1.2c2.6-1.6,4.3-4.5,4.3-7.4c0-2.3,0-4.7,1.1-6.1c5.9-6.6,0.6-0.5,6.5-7l0,0l0.2-0.2c1.5-1.7,4.1-2,6-2.1
			c3.4-0.6,5.5-2.2,7-4.5l0,0c2.1-3.5,3.5-8.7-1.1-13.2C239.5-495.1,233.5-494.9,229.3-490.5"/>
	</g>
</g>
<g id="g84" transform="matrix(0.28768159,0,0,0.28768159,268.70212,-111.39419)">
	<g id="g86">
		<g id="g92">
			<g id="g94">
				<linearGradient id="path102_1_" gradientUnits="userSpaceOnUse" x1="581.3209" y1="586.6819" x2="592.0076" y2="586.6819">
					<stop  offset="0" style="stop-color:#FFFFFF"/>
					<stop  offset="1" style="stop-color:#FFFF00"/>
				</linearGradient>
				<path id="path102" inkscape:connector-curvature="0" class="st9" d="M581.3,586.7c0,10.3,8.3,18.6,18.6,18.6l0,0
					c10.3,0,18.6-8.3,18.6-18.6l0,0c0-10.3-8.3-18.6-18.6-18.6l0,0C589.6,568.1,581.3,576.4,581.3,586.7"/>
			</g>
		</g>
	</g>
</g>
</svg>
