<?xml version="1.0" encoding="utf-8"?>
<!-- Generator: Adobe Illustrator 23.0.1, SVG Export Plug-In . SVG Version: 6.00 Build 0)  -->
<svg version="1.1" id="Layer_1" xmlns="http://www.w3.org/2000/svg" xmlns:xlink="http://www.w3.org/1999/xlink" x="0px" y="0px"
	 viewBox="0 0 141.7 141.7" style="enable-background:new 0 0 141.7 141.7;" xml:space="preserve">
<style type="text/css">
	.st0{fill:#FFFFFF;}
	.st1{fill:#02509A;}
	.st2{fill:#FFCC06;}
	.st3{fill:#FFCD07;}
	.st4{fill:none;stroke:#02509A;stroke-width:4;stroke-miterlimit:10;}
</style>
<path class="st0" d="M99.5,141.7H42.3C18.9,141.7,0,122.8,0,99.5V42.3C0,18.9,18.9,0,42.3,0h57.2c23.3,0,42.3,18.9,42.3,42.3v57.2
	C141.7,122.8,122.8,141.7,99.5,141.7z"/>
<g>
	<g>
		<path class="st1" d="M28,16.5c1.6,0,3-0.6,4.2-1.7c1.2-1.1,1.7-2.5,1.7-4.1c0-1.6-0.6-2.9-1.7-4.1C31,5.5,29.6,4.9,28,4.9
			c-1.6,0-3,0.6-4.2,1.7c-1.2,1.1-1.7,2.5-1.7,4.1c0,1.1,0.3,2,0.8,2.9c0.5,0.9,1.2,1.6,2.2,2.1C26,16.3,26.9,16.5,28,16.5 M23.3,47
			c0,12.9,10.5,23.3,23.3,23.3c9.6,0,21.5-6.1,21.5-15.9c0-2-0.3-3.8-0.9-5.3c-1-2.4-2.9-4.5-5.8-6.2c-1.3-0.7-3.8-1.9-7.7-3.5
			c-1.2-0.5-2.2-0.9-2.9-1.2c-0.7-0.3-1.4-0.7-2.1-1.1c-0.7-0.4-1.3-0.8-1.6-1.2c-0.4-0.4-0.6-0.8-0.9-1.3c-0.2-0.5-0.3-1.1-0.3-1.7
			c0-1.5,0.5-2.7,1.6-3.6c1-0.9,2.4-1.3,4-1.3c3,0,6.4,1.6,10.2,4.8l5.3-7.3c-4.8-4.2-10.1-6.3-15.7-6.2c-2.8,0-5.3,0.7-7.6,1.9
			c-2.3,1.2-4.1,2.9-5.4,5.1c-1.3,2.1-2,4.5-2,7.1c0,1.3,0.1,2.5,0.4,3.6c0.3,1.1,0.7,2.1,1.1,3c0.5,0.9,1.1,1.7,1.8,2.5
			c0.7,0.8,1.5,1.4,2.2,2c0.8,0.6,1.6,1.1,2.7,1.7c3.3,1.8,6.9,3.1,9.9,4.8c0.7,0.4,1.3,0.8,1.6,1.3c0.4,0.4,0.8,0.9,0.9,1.5
			c1.2,5.4-7.1,7.2-10.3,7.2c-7.7,0-13.9-6.2-13.9-13.9V19.2h-9.5L23.3,47z"/>
		<path class="st1" d="M95,59.8c-2.8,0-5.4-0.7-7.7-2.1c-2.3-1.4-4-3.3-5.2-5.7c-1.2-2.4-1.8-5.1-1.8-8c0-2.9,0.6-5.6,1.8-8
			c1.2-2.4,3-4.3,5.2-5.7c2.3-1.4,4.8-2.1,7.7-2.1c2.7,0,5.2,0.7,7.5,2c2.2,1.4,4,3.2,5.3,5.7c1.3,2.4,1.9,5.1,1.9,8.1
			c0,2.2-0.4,4.4-1.1,6.3c-0.7,2-1.8,3.7-3.1,5.1c-1.3,1.4-2.9,2.5-4.7,3.3C99,59.4,97.1,59.8,95,59.8 M95,68.7
			c3.5,0,6.8-0.6,9.8-1.8c3-1.2,5.6-2.9,7.8-5c2.2-2.1,3.9-4.8,5.1-7.9c1.2-3.1,1.9-6.5,1.9-10.1c0-3.6-0.6-7-1.9-10.1
			c-1.2-3.1-3-5.7-5.1-7.8c-2.2-2.1-4.8-3.8-7.8-5c-3-1.2-6.3-1.8-9.8-1.8c-3.6,0-6.9,0.6-10,1.9c-3.1,1.2-5.7,2.9-7.8,5.1
			c-2.1,2.2-3.8,4.8-5,7.9c-1.2,3.1-1.8,6.4-1.8,9.9c0,3.6,0.6,6.9,1.8,9.9c1.2,3.1,2.9,5.7,5,7.9c2.1,2.2,4.7,3.9,7.8,5.1
			C88,68.1,91.4,68.7,95,68.7z"/>
	</g>
	<g>
		<path class="st2" d="M23.5,119.7h-6.1v-9.9h6.2c2.2,0,3.9,0.4,5,1.3c1.2,0.9,1.7,2.1,1.7,3.7c0,1.1-0.3,2-0.9,2.7
			c-0.6,0.7-1.4,1.3-2.4,1.6C26.1,119.5,24.9,119.7,23.5,119.7 M17.4,94.6h4.9c1.4,0,2.6,0.2,3.6,0.6c1,0.4,1.6,0.9,2.1,1.6
			c0.4,0.6,0.6,1.4,0.6,2.3c0,1-0.3,1.9-0.8,2.6c-0.6,0.7-1.3,1.2-2.1,1.5c-0.8,0.3-1.8,0.5-2.9,0.5h-5.4V94.6z M30.6,106v-0.1
			c1.3-0.5,2.4-1.2,3.3-2.2c0.9-0.9,1.5-1.9,1.9-3c0.4-1.1,0.6-2.2,0.6-3.4c0-3-1.1-5.4-3.2-7c-2.1-1.6-5.2-2.4-9.3-2.4H9.9v38.4
			h15.9c2.1,0,3.9-0.3,5.5-0.8c1.6-0.5,2.9-1.3,3.9-2.2c1-0.9,1.8-2.1,2.3-3.4c0.5-1.3,0.8-2.7,0.8-4.3c0-2.5-0.7-4.6-2-6.3
			C34.9,107.8,33,106.6,30.6,106z"/>
		<path class="st2" d="M48.5,94.7h5.7c2.2,0,3.9,0.5,5.1,1.6c1.2,1.1,1.8,2.5,1.8,4.3c0,1.8-0.6,3.2-1.9,4.3c-1.2,1.1-3,1.6-5.3,1.6
			h-5.3V94.7z M70.5,126.4l-9.5-14v-0.1c1.7-0.5,3.1-1.3,4.2-2.3c1.2-1,2-2.3,2.7-3.9c0.6-1.6,1-3.3,1-5.3c0-1.9-0.3-3.6-0.8-5.1
			c-0.5-1.5-1.3-2.9-2.4-4c-1.1-1.2-2.5-2.1-4.2-2.7c-1.7-0.6-3.7-1-6-1H41v38.4h7.5v-13.2h4.4l8.6,13.2H70.5z"/>
		<path class="st2" d="M82.3,112.2l5.1-15.1h0.1l5.1,15.1H82.3z M97.5,126.4h8L91.2,87.9h-7.4l-14.2,38.4h8l2.6-7.7h14.7L97.5,126.4
			z"/>
		<path class="st2" d="M118.2,126.8c1.3,0,2.6-0.1,3.8-0.4c1.3-0.3,2.5-0.7,3.7-1.3c1.2-0.6,2.2-1.4,3.1-2.3c0.9-0.9,1.6-2,2.2-3.4
			c0.5-1.3,0.8-2.8,0.8-4.5c0-1.6-0.3-3-0.7-4.2c-0.8-1.9-2.4-3.5-4.8-4.8c-1-0.6-3.2-1.5-6.4-2.7c-1-0.4-1.8-0.7-2.4-1
			c-0.6-0.3-1.2-0.5-1.8-0.9c-0.6-0.3-1-0.6-1.3-1c-0.3-0.3-0.5-0.6-0.7-1c-0.2-0.4-0.3-0.8-0.3-1.3c0-1.2,0.5-2.1,1.3-2.8
			c0.8-0.7,2-1,3.3-1c2.5,0,5.3,1.3,8.4,3.8l4.4-5.7c-4-3.3-8.3-4.9-12.9-4.8c-2.3,0-4.4,0.5-6.2,1.5c-1.9,1-3.4,2.3-4.5,4
			c-1.1,1.7-1.6,3.5-1.6,5.5c0,1,0.1,2,0.4,2.8c0.2,0.9,0.6,1.7,0.9,2.4c0.4,0.7,0.9,1.3,1.5,1.9c0.6,0.6,1.2,1.1,1.8,1.6
			c0.6,0.4,1.4,0.9,2.2,1.3c0.8,0.4,1.6,0.8,2.3,1.1c0.7,0.3,1.6,0.6,2.5,0.9c1,0.4,1.9,0.7,2.5,0.9c0.6,0.3,1.2,0.6,1.8,0.9
			c0.6,0.3,1,0.7,1.3,1c0.3,0.3,0.6,0.7,0.7,1.2c0.2,0.4,0.3,0.9,0.3,1.5c0,0.8-0.2,1.5-0.6,2.1c-0.4,0.6-1,1.1-1.9,1.4
			c-0.8,0.4-1.9,0.5-3,0.5c-0.8,0-1.6-0.1-2.4-0.3c-0.8-0.2-1.6-0.5-2.4-0.9c-0.8-0.4-1.6-0.9-2.5-1.5c-0.8-0.6-1.6-1.3-2.3-2.1
			l-4.6,5.6c2,2,4.2,3.5,6.6,4.5C113.2,126.3,115.6,126.8,118.2,126.8"/>
	</g>
</g>
</svg>
